<?xml version="1.0" encoding="UTF-8" standalone="no"?>
<!-- Created with Inkscape (http://www.inkscape.org/) -->

<svg
   xmlns:i="http://ns.adobe.com/AdobeIllustrator/10.0/"
   xmlns:dc="http://purl.org/dc/elements/1.1/"
   xmlns:cc="http://creativecommons.org/ns#"
   xmlns:rdf="http://www.w3.org/1999/02/22-rdf-syntax-ns#"
   xmlns:svg="http://www.w3.org/2000/svg"
   xmlns="http://www.w3.org/2000/svg"
   xmlns:sodipodi="http://sodipodi.sourceforge.net/DTD/sodipodi-0.dtd"
   xmlns:inkscape="http://www.inkscape.org/namespaces/inkscape"
   width="744.09448"
   height="1052.3622"
   id="svg2"
   version="1.1"
   inkscape:version="0.91pre2 r13516"
   viewBox="0 0 744.09448 1052.3622"
   inkscape:export-filename="D:\Library\nodejs\base\public\imgs\alilogo.png"
   inkscape:export-xdpi="72"
   inkscape:export-ydpi="72"
   sodipodi:docname="Bureau_Veritas_logo.svg">
  <defs
     id="defs4" />
  <sodipodi:namedview
     id="base"
     pagecolor="#ffffff"
     bordercolor="#666666"
     borderopacity="1.0"
     inkscape:pageopacity="0.0"
     inkscape:pageshadow="2"
     inkscape:zoom="1.4"
     inkscape:cx="283.21429"
     inkscape:cy="576.42857"
     inkscape:document-units="px"
     inkscape:current-layer="g4160"
     showgrid="false"
     inkscape:window-width="1680"
     inkscape:window-height="988"
     inkscape:window-x="-8"
     inkscape:window-y="-8"
     inkscape:window-maximized="1" />
  <metadata
     id="metadata7">
    <rdf:RDF>
      <cc:Work
         rdf:about="">
        <dc:format>image/svg+xml</dc:format>
        <dc:type
           rdf:resource="http://purl.org/dc/dcmitype/StillImage" />
        <dc:title></dc:title>
      </cc:Work>
    </rdf:RDF>
  </metadata>
  <g
     inkscape:label="Layer 1"
     inkscape:groupmode="layer"
     id="layer1">
    <g
       id="g4160"
       inkscape:export-xdpi="72"
       inkscape:export-ydpi="72">
      <rect
         y="268.07648"
         x="196.42857"
         height="195"
         width="292.5"
         id="rect4158"
         style="opacity:0.66699997;fill:none;fill-opacity:1;stroke:#000000;stroke-width:0.1;stroke-miterlimit:4;stroke-dasharray:none;stroke-opacity:1" />
      <g
         inkscape:label="Layer 1"
         id="layer1-5"
         transform="translate(-103.9744,-72.264619)">
        <path
           inkscape:connector-curvature="0"
           style="clip-rule:evenodd;fill-rule:evenodd"
           id="path2229"
           d="m 369.08689,475.69593 c -0.85595,-0.19067 -2.09222,-0.85494 -3.04352,-1.61761 -8.65591,-8.27355 2.37719,-17.97505 15.12223,-23.58541 l 0,-15.9792 c 3.04351,1.80827 4.56373,1.99791 4.7544,2.28288 l 9.7015,-9.7015 -3.23316,-8.17925 c 28.53254,-9.89113 40.04025,-13.69423 63.24637,-17.59472 l -4.18443,-3.80413 6.84764,-3.99479 c 15.59787,5.23106 30.14807,6.56267 27.67555,19.59266 0.6663,-8.75023 -10.27147,-12.17405 -27.19989,-16.92945 l -3.13887,1.99789 6.18134,5.13573 c -27.76985,4.85076 -44.88996,10.17613 -65.14895,17.21444 l 2.66422,7.22795 -10.08183,9.98649 c 1.71191,0.47564 19.40096,6.46734 37.94802,-6.46734 0.0953,-0.0953 0.3803,-0.19066 0.3803,-0.3803 -0.6663,-0.9513 -1.80724,-1.80827 -3.32848,-3.23418 5.32537,0.3803 8.84452,5.13573 8.17924,10.08182 l -2.47252,0 c 0.28497,-1.52227 -0.0953,-3.32951 -0.76164,-4.47043 -14.17195,10.46213 -30.81437,11.9844 -44.9853,7.03831 l 0,12.36368 c -6.94297,2.37719 -19.21235,9.98649 -19.11702,17.30977 0.47564,3.51912 2.28188,4.75539 3.9948,5.70669 l 0,0 z"
           i:knockout="Off" />
        <path
           inkscape:connector-curvature="0"
           style="clip-rule:evenodd;fill:#f47937;fill-rule:evenodd"
           id="path2231"
           d="m 427.00686,472.46277 c -15.31289,7.89325 -29.95843,14.07457 -52.78424,14.93154 -29.38848,-0.572 -33.95322,-20.16363 -19.97296,-40.61123 13.12429,-20.63826 34.04958,-39.37495 67.43183,-51.07335 9.50983,-3.32849 23.87243,-7.32329 37.47135,-7.41759 19.68799,-0.19067 38.80398,5.99067 37.56771,24.72736 -0.66631,14.45693 -21.49421,34.90553 -32.43198,49.55109 -4.7544,6.37301 -5.51501,10.46213 2.47252,10.1751 29.00816,-1.90052 55.54379,-11.98132 79.89188,-22.44345 -16.35848,11.12741 -102.1467,53.64121 -102.62236,24.63306 0.0964,-3.61449 1.90258,-7.51395 4.6601,-11.60307 2.75955,-4.09013 6.56267,-8.46525 10.46213,-12.93466 5.80204,-6.658 20.25793,-22.63617 25.10869,-32.24234 8.18026,-18.07038 -10.1751,-19.02065 -25.96363,-24.63305 l -6.84762,3.99481 4.09013,3.80413 c -23.11182,3.90049 -34.61953,7.70359 -63.15205,17.59474 l 3.23316,8.17925 -9.7015,9.7015 c -0.19067,-0.28497 -1.71089,-0.47461 -4.7544,-2.28288 l 0,15.9792 c -12.74502,5.61034 -23.77812,15.31186 -15.12223,23.58541 0.9513,0.76267 2.18755,1.42694 3.04352,1.61761 0,0 0,0 -0.0953,0 15.69214,8.8445 58.10959,-3.23318 58.01528,-3.23318 l 0,0 z"
           i:knockout="Off" />
      </g>
    </g>
  </g>
</svg>
