<?xml version="1.0" encoding="UTF-8" standalone="no"?>
<!-- Created with Inkscape (http://www.inkscape.org/) -->

<svg
   xmlns:dc="http://purl.org/dc/elements/1.1/"
   xmlns:cc="http://creativecommons.org/ns#"
   xmlns:rdf="http://www.w3.org/1999/02/22-rdf-syntax-ns#"
   xmlns:svg="http://www.w3.org/2000/svg"
   xmlns="http://www.w3.org/2000/svg"
   xmlns:sodipodi="http://sodipodi.sourceforge.net/DTD/sodipodi-0.dtd"
   xmlns:inkscape="http://www.inkscape.org/namespaces/inkscape"
   width="210mm"
   height="297mm"
   viewBox="0 0 744.09448819 1052.3622047"
   id="svg4738"
   version="1.1"
   inkscape:version="0.91 r13725"
   sodipodi:docname="car.svg">
  <defs
     id="defs4740" />
  <sodipodi:namedview
     id="base"
     pagecolor="#ffffff"
     bordercolor="#666666"
     borderopacity="1.0"
     inkscape:pageopacity="0.0"
     inkscape:pageshadow="2"
     inkscape:zoom="0.35"
     inkscape:cx="233.57864"
     inkscape:cy="589.70053"
     inkscape:document-units="px"
     inkscape:current-layer="g4748"
     showgrid="false"
     inkscape:window-width="1600"
     inkscape:window-height="838"
     inkscape:window-x="-8"
     inkscape:window-y="-8"
     inkscape:window-maximized="1" />
  <metadata
     id="metadata4743">
    <rdf:RDF>
      <cc:Work
         rdf:about="">
        <dc:format>image/svg+xml</dc:format>
        <dc:type
           rdf:resource="http://purl.org/dc/dcmitype/StillImage" />
        <dc:title></dc:title>
      </cc:Work>
    </rdf:RDF>
  </metadata>
  <g
     inkscape:label="Layer 1"
     inkscape:groupmode="layer"
     id="layer1">
    <g
       style="overflow:visible"
       id="g4758"
       transform="translate(-142.58501,220.67091)">
      <g
         id="Shape_1">
        <g
           id="g4748">
          <rect
             style="opacity:1;fill:#ffffff;fill-opacity:0;stroke:none;stroke-width:0.105;stroke-miterlimit:4;stroke-dasharray:none;stroke-opacity:1"
             id="rect4763"
             width="950"
             height="633.33331"
             x="28.299284"
             y="-67.356361"
             inkscape:export-xdpi="22.168423"
             inkscape:export-ydpi="22.168423" />
          <path
             id="path4750"
             d="m 191.40743,344.06758 c -4.079,0 -7.386,3.307 -7.386,7.386 0,4.079 3.307,7.386 7.386,7.386 4.079,0 7.386,-3.307 7.386,-7.386 0,-4.079 -3.306,-7.386 -7.386,-7.386 z m -10.522,-14.87 c 0.724,-0.343 1.466,-0.655 2.227,-0.928 l 0,-25.355 c -7.415,1.258 -14.264,4.176 -20.156,8.354 l 17.929,17.929 z m 10.522,35.828 c -1.729,0 -3.13,1.401 -3.13,3.131 0,1.729 1.401,3.13 3.13,3.13 1.729,0 3.13,-1.401 3.13,-3.13 0.001,-1.73 -1.401,-3.131 -3.13,-3.131 z m 8.296,9.609 0,25.356 c 7.415,-1.259 14.264,-4.177 20.156,-8.355 l -17.929,-17.929 c -0.724,0.343 -1.465,0.655 -2.227,0.928 z m 14.885,-14.887 c -0.273,0.761 -0.58,1.506 -0.923,2.229 l 17.928,17.929 c 4.18,-5.892 7.095,-12.743 8.354,-20.158 l -25.359,0 z m -23.181,-88.918 c -44.527,0 -80.623,36.096 -80.623,80.623 0,44.526 36.096,80.622 80.623,80.622 44.527,0 80.623,-36.096 80.623,-80.622 0,-44.527 -36.096,-80.623 -80.623,-80.623 z m 0,138.21 c -31.805,0 -57.587,-25.782 -57.587,-57.587 0,-31.805 25.783,-57.588 57.587,-57.588 31.804,0 57.588,25.783 57.588,57.588 0,31.805 -25.783,57.587 -57.588,57.587 z m 13.574,-57.588 c 0,1.729 1.401,3.13 3.13,3.13 1.729,0 3.13,-1.401 3.13,-3.13 0,-1.729 -1.401,-3.131 -3.13,-3.131 -1.729,0 -3.13,1.402 -3.13,3.131 z m -13.574,-13.574 c 1.729,0 3.13,-1.401 3.13,-3.13 0,-1.729 -1.401,-3.131 -3.13,-3.131 -1.729,0 -3.13,1.401 -3.13,3.131 0,1.729 1.401,3.13 3.13,3.13 z m 28.453,-26.609 c -5.892,-4.179 -12.741,-7.096 -20.156,-8.354 l 0,25.355 c 0.761,0.272 1.503,0.584 2.228,0.927 l 17.928,-17.928 z m -50.709,29.659 -17.928,-17.929 c -4.18,5.892 -7.095,12.743 -8.354,20.158 l 25.359,0 c 0.272,-0.76 0.579,-1.505 0.923,-2.229 z m -0.925,18.82 -25.357,0 c 1.258,7.415 4.175,14.266 8.354,20.157 l 17.929,-17.93 c -0.343,-0.723 -0.654,-1.466 -0.926,-2.227 z m -5.271,31.889 c 5.892,4.18 12.742,7.096 20.157,8.354 l 0,-25.356 c -0.761,-0.272 -1.504,-0.583 -2.229,-0.927 l -17.928,17.929 z m 14.879,-40.185 c 0,-1.729 -1.401,-3.131 -3.13,-3.131 -1.729,0 -3.13,1.401 -3.13,3.131 0,1.729 1.401,3.13 3.13,3.13 1.729,0 3.13,-1.401 3.13,-3.13 z m 36.755,-8.295 25.357,0 c -1.259,-7.415 -4.175,-14.266 -8.354,-20.157 l -17.929,17.93 c 0.343,0.723 0.654,1.466 0.926,2.227 z m 578.255,-3.238 c -4.078,0 -7.385,3.308 -7.385,7.386 0,4.079 3.307,7.386 7.385,7.386 4.079,0 7.386,-3.307 7.386,-7.386 0,-4.078 -3.306,-7.386 -7.386,-7.386 z m 8.297,30.568 0,25.355 c 7.414,-1.258 14.264,-4.176 20.155,-8.354 l -17.93,-17.93 c -0.723,0.344 -1.464,0.657 -2.225,0.929 z m -8.297,-9.609 c -1.729,0 -3.13,1.401 -3.13,3.13 0,1.729 1.401,3.131 3.13,3.131 1.729,0 3.131,-1.401 3.131,-3.131 0,-1.729 -1.401,-3.13 -3.131,-3.13 z m 149.469,-47.405 c 3.894,-24.361 -0.146,-26.462 -16.273,-62.38 -4.379,-9.752 -15.954,-15.688 -25.314,-20.794 -48.921,-26.685 -171.067,-43.229 -179.005,-43.395 -24.868,-24.765 -65.578,-71.341 -120.214,-108.598004 -10.192,-6.95 -46.134,-8.027 -46.134,-8.027 0,0 -294.928,-11.301 -365.243,5.425 -6.066,1.442 -10.282,0.939 -15.369,3.616 -0.829,0.436 -15.444,15.535 -16.273,17.177 -0.81,1.604 -5.596,6.829004 -7.232,9.041004 -10.851,14.667 -24.152,29.147 -33.451,45.203 -4.083,7.052 -5.975,13.763 -9.945,20.794 -3.821,6.768 -17.722998,11.975 -19.888998,24.409 -1.04,5.966 -7.825,3.736 -8.137,12.657 3.099,0.957 3.473,2.089 7.232,2.712 -5.436,19.767 -8.772,55.053 -9.06,58.771 0.007,-0.002 0.013,-0.005 0.02,-0.007 -0.046,0.451 -0.052,0.426 -0.02,0.007 -17.009,5.34 -15.43,35.902 -17.019,30.364 2.045,8.134 7.679,18.729 9.806,27.489 1.822,7.505 -4.228,10.706 -4.521,18.081 1.32,0.771 2.592,8.87 3.616,9.944 4.3,11.836 37.948998,22.548 37.948998,22.548 l 3.334,0.004 c -2.865,-8.497 -4.419,-17.599 -4.419,-27.063 0,-46.754 37.901,-84.655 84.655,-84.655 46.754,0 84.655,37.901 84.655,84.655 0,9.538 -1.579,18.708 -4.487,27.263 l 442.863,0.551 c -4.024,-9.863 -6.248,-20.651 -6.248,-31.962 0,-46.753 37.901,-84.654 84.654,-84.654 46.754,0 84.655,37.901 84.655,84.654 0,11.385 -2.253,22.241 -6.328,32.156 l 6.952,0.009 c 0,0 51.968,4.831 58.765,-11.753 2.79,-3.113 3.824,-18.861 3.616,-28.025 0.1,-9.427 2.004,-7.608 4.521,-13.562 2.445,-5.782 -3.613,-10.012 -2.712,-12.655 z m -591.259,-141.034 c -1.658,1.162 -1.548,1.779 -3.617,2.713 -6.585,4.99 -70.862,-1.809 -158.211,-1.809 1.486,2.12 -10.225,0.291 -0.904,-19.89 12.67,-27.431 31.993,-46.651 30.929,-47.037 25.668,-3.86 94.447,-2.738 131.804,-1.782 -0.758,21.698 -0.449,33.45 -10e-4,67.805 z m 261.275,20.794 c -1.347,-1.919 -5.584,-4.361 -6.328,-6.328 -0.86,-2.274 1.414,-6.767 0,-9.945 -3.891,-8.744 -16.79,-14.632 -29.834,-14.465 -3.108,3.6 -7.803,5.202 -9.945,9.944 -0.593,1.313 -2.878,13.747 -2.712,14.466 0.447,1.942 1.554,2.306 1.835,3.306 2.324,0.093 1.197,0.357 -0.027,1.214 0.125,-0.517 0.117,-0.896 0.027,-1.214 -6.519,-0.261 -40.229,0.829 -175.416,-6.019 -3.745,-71.159 -7.104,-73.49 0.904,-84.981004 79.107,0 162.732,-0.904 162.732,-0.904 0,0 59.5,72.629004 77.749,95.831004 -3.224,1.544 -13.723,-0.673 -18.985,-0.905 z m 56.956,-7.233 c -29.363,-23.554 -68.116,-74.352 -86.79,-89.503004 -6.332,0 14.816,-0.36 26.218,-2.712 34.03,30.023004 69.262,57.180004 100.174,92.502004 -14.639,0.669 -27.172,9.683 -39.602,-0.287 z m 123.559,80.683 c -44.526,0 -80.622,36.096 -80.622,80.622 0,44.527 36.096,80.623 80.622,80.623 44.527,0 80.623,-36.096 80.623,-80.623 0,-44.527 -36.095,-80.622 -80.623,-80.622 z m 0,138.21 c -31.805,0 -57.587,-25.783 -57.587,-57.588 0,-31.805 25.782,-57.587 57.587,-57.587 31.805,0 57.588,25.782 57.588,57.587 0,31.805 -25.783,57.588 -57.588,57.588 z m 22.258,-47.063 17.928,17.928 c 4.18,-5.892 7.095,-12.742 8.354,-20.157 l -25.358,0 c -0.273,0.76 -0.581,1.505 -0.924,2.229 z m 0.924,-18.821 25.357,0 c -1.259,-7.415 -4.176,-14.265 -8.354,-20.156 l -17.929,17.929 c 0.343,0.724 0.654,1.466 0.926,2.227 z m -33.703,-13.958 c 0.725,-0.343 1.466,-0.655 2.227,-0.928 l 0,-25.356 c -7.415,1.259 -14.264,4.177 -20.156,8.354 l 17.929,17.93 z m -3.052,22.253 c 0,-1.729 -1.401,-3.13 -3.131,-3.13 -1.729,0 -3.13,1.401 -3.13,3.13 0,1.729 1.401,3.131 3.13,3.131 1.73,0 3.131,-1.402 3.131,-3.131 z m 13.573,-13.573 c 1.729,0 3.131,-1.401 3.131,-3.131 0,-1.729 -1.401,-3.13 -3.131,-3.13 -1.729,0 -3.13,1.401 -3.13,3.13 10e-4,1.729 1.402,3.131 3.13,3.131 z m 28.453,-26.611 c -5.891,-4.179 -12.741,-7.095 -20.155,-8.354 l 0,25.356 c 0.761,0.272 1.503,0.583 2.227,0.926 l 17.928,-17.928 z m -14.878,40.184 c 0,1.729 1.401,3.131 3.131,3.131 1.729,0 3.13,-1.401 3.13,-3.131 0,-1.729 -1.401,-3.13 -3.13,-3.13 -1.73,0 -3.131,1.401 -3.131,3.13 z m -35.83,-10.525 -17.929,-17.928 c -4.18,5.892 -7.095,12.742 -8.354,20.157 l 25.358,0 c 0.274,-0.76 0.581,-1.504 0.925,-2.229 z m -6.197,50.71 c 5.892,4.179 12.742,7.096 20.157,8.354 l 0,-25.355 c -0.762,-0.272 -1.504,-0.584 -2.229,-0.927 l -17.928,17.928 z m 5.271,-31.888 -25.356,0 c 1.259,7.415 4.175,14.265 8.354,20.156 l 17.929,-17.929 c -0.343,-0.724 -0.655,-1.467 -0.927,-2.227 z"
             inkscape:connector-curvature="0"
             style="fill:#467d35;fill-opacity:1" />
        </g>
      </g>
    </g>
  </g>
</svg>
