<?xml version="1.0" encoding="UTF-8" standalone="no"?>
<!-- Created with Inkscape (http://www.inkscape.org/) -->

<svg
   xmlns:dc="http://purl.org/dc/elements/1.1/"
   xmlns:cc="http://creativecommons.org/ns#"
   xmlns:rdf="http://www.w3.org/1999/02/22-rdf-syntax-ns#"
   xmlns:svg="http://www.w3.org/2000/svg"
   xmlns="http://www.w3.org/2000/svg"
   xmlns:sodipodi="http://sodipodi.sourceforge.net/DTD/sodipodi-0.dtd"
   xmlns:inkscape="http://www.inkscape.org/namespaces/inkscape"
   width="210mm"
   height="297mm"
   viewBox="0 0 744.09448819 1052.3622047"
   id="svg4464"
   version="1.1"
   inkscape:version="0.91 r13725"
   sodipodi:docname="contact.svg">
  <defs
     id="defs4466" />
  <sodipodi:namedview
     id="base"
     pagecolor="#ffffff"
     bordercolor="#666666"
     borderopacity="1.0"
     inkscape:pageopacity="0.0"
     inkscape:pageshadow="2"
     inkscape:zoom="0.98994949"
     inkscape:cx="338.63451"
     inkscape:cy="643.23861"
     inkscape:document-units="px"
     inkscape:current-layer="layer1"
     showgrid="false"
     inkscape:window-width="1600"
     inkscape:window-height="838"
     inkscape:window-x="-8"
     inkscape:window-y="-8"
     inkscape:window-maximized="1" />
  <metadata
     id="metadata4469">
    <rdf:RDF>
      <cc:Work
         rdf:about="">
        <dc:format>image/svg+xml</dc:format>
        <dc:type
           rdf:resource="http://purl.org/dc/dcmitype/StillImage" />
        <dc:title></dc:title>
      </cc:Work>
    </rdf:RDF>
  </metadata>
  <g
     inkscape:label="Layer 1"
     inkscape:groupmode="layer"
     id="layer1">
    <rect
       style="opacity:1;fill:#ffffff;fill-opacity:0;stroke:none;stroke-width:0.1101065;stroke-miterlimit:4;stroke-dasharray:none;stroke-opacity:1"
       id="rect4736"
       width="749.88989"
       height="499.88989"
       x="26.266521"
       y="166.59152"
       inkscape:export-xdpi="28.08"
       inkscape:export-ydpi="28.08" />
    <g
       id="g4474"
       style="fill:#ff3216;fill-opacity:1;stroke:#ff3216;stroke-width:20;stroke-opacity:1"
       transform="translate(-658.71712,506.85136)">
      <path
         id="path4476"
         d="m 951.42857,-305.71429 c -67,0 -120,54 -120,120 0,135.000004 136,170.000004 228.00003,303 88,-131.999996 229,-172.999996 229,-303 0,-66 -54,-120 -120,-120 -48,0 -90,28 -109,69 -19,-41 -60.00003,-69 -108.00003,-69 z"
         inkscape:connector-curvature="0"
         style="fill:#ff3216;fill-opacity:1;stroke:#ff3216;stroke-opacity:1" />
    </g>
    <g
       id="g4629"
       transform="translate(355.49275,366.46723)">
      <g
         id="g4593" />
      <g
         id="g4595" />
      <g
         id="g4597" />
      <g
         id="g4599" />
      <g
         id="g4601" />
      <g
         id="g4603" />
      <g
         id="g4605" />
      <g
         id="g4607" />
      <g
         id="g4609" />
      <g
         id="g4611" />
      <g
         id="g4613" />
      <g
         id="g4615" />
      <g
         id="g4617" />
      <g
         id="g4619" />
      <g
         id="g4621" />
      <g
         id="g4717"
         transform="matrix(6.8754065,0,0,6.8754065,-62.438602,-78.091221)">
        <g
           id="g4677">
          <path
             id="path4679"
             d="M 31.261,0.622 C 31.253,0.613 31.249,0.603 31.245,0.598 31.237,0.585 31.225,0.577 31.222,0.567 30.995,0.256 30.636,0.053 30.224,0.053 l -0.002,0 -20.953,0 -0.003,0 c -0.683,0 -1.233,0.553 -1.233,1.234 l 0,0.001 0,1.076 0,4.042 0,2.274 0,4.043 0,2.271 0,4.041 0,2.273 0,4.043 0,1.075 0,0 c 0,0.247 0.074,0.478 0.199,0.671 0.006,0.006 0.008,0.014 0.012,0.021 0.01,0.012 0.02,0.021 0.025,0.03 0.225,0.312 0.586,0.515 0.997,0.515 l 0.002,0 1.534,0 c -0.258,1.675 -1.695,2.965 -3.441,2.965 -1.764,0 -3.212,-1.317 -3.445,-3.021 l 1.547,0 0,0 c 0.683,0 1.234,-0.553 1.234,-1.233 l 0,-10e-4 0,-1.075 0,-4.043 0,-2.272 0,-4.041 0,-2.273 0,-4.044 0,-2.273 0,-4.041 0,-1.077 0,-0.002 C 6.697,0.988 6.625,0.758 6.5,0.568 6.495,0.561 6.49,0.55 6.484,0.544 6.479,0.532 6.47,0.523 6.461,0.514 6.236,0.204 5.875,0 5.462,0 l 0,0 L 1.241,0 1.239,0 C 0.557,0 0.007,0.553 0.007,1.232 l 0,0.002 0,1.076 0,4.041 0,2.273 0,4.043 0,2.273 0,4.041 0,2.272 0,4.043 0,1.076 0,0.001 c 0,0.247 0.072,0.477 0.197,0.669 0.006,0.006 0.01,0.015 0.014,0.021 0.008,0.013 0.017,0.021 0.023,0.031 0.227,0.312 0.586,0.514 0.998,0.514 l 0.002,0 1.838,0 c 0.239,2.162 2.057,3.855 4.281,3.855 2.207,0 4.014,-1.667 4.277,-3.802 l 18.584,0 0.002,0 c 0.683,0 1.232,-0.554 1.232,-1.233 l 0,-0.002 0,-1.076 0,-4.043 0,-2.271 0,-4.041 0,-2.272 0,-4.043 0,-2.273 0,-4.042 0,-1.076 0,-10e-4 C 31.458,1.041 31.384,0.812 31.261,0.622 Z M 15.97,18.656 c 0,0.291 -0.236,0.525 -0.527,0.525 l -2.902,0 c -0.291,0 -0.526,-0.234 -0.526,-0.525 l 0,-1.23 c 0,-0.289 0.235,-0.525 0.526,-0.525 l 2.902,0 c 0.291,0 0.527,0.236 0.527,0.525 l 0,1.23 z m 0,-4.183 C 15.97,14.764 15.734,15 15.443,15 l -2.902,0 c -0.291,0 -0.526,-0.236 -0.526,-0.527 l 0,-1.229 c 0,-0.291 0.235,-0.527 0.526,-0.527 l 2.902,0 c 0.291,0 0.527,0.236 0.527,0.527 l 0,1.229 z m 0,-4.183 c 0,0.289 -0.236,0.526 -0.527,0.526 l -2.902,0 c -0.291,0 -0.526,-0.237 -0.526,-0.526 l 0,-1.229 c 0,-0.291 0.235,-0.527 0.526,-0.527 l 2.902,0 c 0.291,0 0.527,0.236 0.527,0.527 l 0,1.229 z m 5.754,8.366 c 0,0.291 -0.234,0.525 -0.527,0.525 l -2.901,0 c -0.293,0 -0.526,-0.234 -0.526,-0.525 l 0,-1.23 c 0,-0.289 0.233,-0.525 0.526,-0.525 l 2.901,0 c 0.293,0 0.527,0.236 0.527,0.525 l 0,1.23 z m 0,-4.183 C 21.724,14.764 21.49,15 21.197,15 l -2.901,0 C 18.003,15 17.77,14.764 17.77,14.473 l 0,-1.229 c 0,-0.291 0.233,-0.527 0.526,-0.527 l 2.901,0 c 0.293,0 0.527,0.236 0.527,0.527 l 0,1.229 z m 0,-4.183 c 0,0.289 -0.234,0.526 -0.527,0.526 l -2.901,0 c -0.293,0 -0.526,-0.237 -0.526,-0.526 l 0,-1.229 c 0,-0.291 0.233,-0.527 0.526,-0.527 l 2.901,0 c 0.293,0 0.527,0.236 0.527,0.527 l 0,1.229 z m 5.754,8.366 c 0,0.291 -0.236,0.525 -0.529,0.525 l -2.899,0 c -0.293,0 -0.528,-0.234 -0.528,-0.525 l 0,-1.23 c 0,-0.289 0.235,-0.525 0.528,-0.525 l 2.899,0 c 0.293,0 0.529,0.236 0.529,0.525 l 0,1.23 z m 0,-4.183 c 0,0.291 -0.236,0.527 -0.529,0.527 l -2.899,0 c -0.293,0 -0.528,-0.236 -0.528,-0.527 l 0,-1.229 c 0,-0.291 0.235,-0.527 0.528,-0.527 l 2.899,0 c 0.293,0 0.529,0.236 0.529,0.527 l 0,1.229 z m 0,-4.183 c 0,0.289 -0.236,0.526 -0.529,0.526 l -2.899,0 c -0.293,0 -0.528,-0.237 -0.528,-0.526 l 0,-1.229 c 0,-0.291 0.235,-0.527 0.528,-0.527 l 2.899,0 c 0.293,0 0.529,0.236 0.529,0.527 l 0,1.229 z"
             inkscape:connector-curvature="0"
             style="fill:#ffffff;fill-opacity:1" />
        </g>
        <g
           id="g4681" />
        <g
           id="g4683" />
        <g
           id="g4685" />
        <g
           id="g4687" />
        <g
           id="g4689" />
        <g
           id="g4691" />
        <g
           id="g4693" />
        <g
           id="g4695" />
        <g
           id="g4697" />
        <g
           id="g4699" />
        <g
           id="g4701" />
        <g
           id="g4703" />
        <g
           id="g4705" />
        <g
           id="g4707" />
        <g
           id="g4709" />
      </g>
    </g>
  </g>
</svg>
